<?xml version="1.0" encoding="UTF-8"?>
<svg version="1.1" xmlns="http://www.w3.org/2000/svg" width="1536" height="1024">
<path d="M0 0 C506.88 0 1013.76 0 1536 0 C1536 337.92 1536 675.84 1536 1024 C1029.12 1024 522.24 1024 0 1024 C0 686.08 0 348.16 0 0 Z " fill="#FDFDFD" transform="translate(0,0)"/>
<path d="M0 0 C1.16466797 -0.020625 2.32933594 -0.04125 3.52929688 -0.0625 C14.29372036 -0.11047515 24.15061957 1.61086983 33.625 6.875 C34.25728516 7.22272461 34.88957031 7.57044922 35.54101562 7.92871094 C47.72256028 14.91720201 55.52331467 26.08569307 59.34423828 39.52172852 C60.37443945 44.25938202 60.46895082 48.91600841 60.4375 53.75 C60.42783203 55.32104492 60.42783203 55.32104492 60.41796875 56.92382812 C59.50549521 96.28025259 29.6271425 122.74155902 3.6875 148.5625 C1.76640368 150.47799119 -0.15391647 152.39425969 -2.07421875 154.31054688 C-6.7343033 158.9597213 -11.39724343 163.6060158 -16.0625 168.25 C-19.3970024 167.1384992 -19.82846736 166.57152885 -21.77734375 163.8125 C-22.29256592 163.09094727 -22.80778809 162.36939453 -23.33862305 161.62597656 C-23.88687744 160.8419043 -24.43513184 160.05783203 -25 159.25 C-25.86008667 158.03908691 -25.86008667 158.03908691 -26.73754883 156.80371094 C-28.51986375 154.29089896 -30.29171698 151.77094751 -32.0625 149.25 C-33.11921136 147.75479804 -34.1764777 146.25998811 -35.234375 144.765625 C-37.2328635 141.94098337 -39.2254955 139.11233442 -41.21484375 136.28125 C-43.04299585 133.68429521 -44.88769277 131.10098273 -46.75390625 128.53125 C-62.83812748 106.3643018 -73.72046036 85.41069379 -69.24291992 57.09912109 C-66.14157535 39.9316251 -57.53619123 23.53745438 -43.0625 13.25 C-29.08197367 4.25065883 -16.61976247 0.07190811 0 0 Z " fill="#0150B7" transform="translate(796.0625,425.75)"/>
<path d="M0 0 C1.24678024 0.00565979 2.49356049 0.01131958 3.77812195 0.01715088 C7.71056614 0.03931358 11.6420559 0.08947334 15.57421875 0.140625 C18.2610445 0.16300711 20.94789569 0.17923779 23.63476562 0.1953125 C30.17740197 0.23911232 36.71949214 0.30582023 43.26171875 0.390625 C43.14706454 2.62034773 43.01957109 4.84941253 42.88671875 7.078125 C42.81710937 8.31949219 42.7475 9.56085938 42.67578125 10.83984375 C41.99508792 16.67711012 40.31332666 19.71208881 36.07421875 23.703125 C33.27163743 26.40814811 30.58139649 29.0976535 28.07421875 32.078125 C24.67011892 36.05621825 20.98045475 39.71063088 17.26171875 43.390625 C12.98654792 47.62130336 8.85222329 51.87457418 4.96484375 56.46875 C2.02671781 59.78424991 -1.17785694 62.83696297 -4.328125 65.94921875 C-7.00682657 68.66265227 -9.48436243 71.49839523 -11.9609375 74.39453125 C-14.6892741 77.45866313 -17.63496033 80.29544332 -20.5546875 83.17578125 C-22.51802796 85.16721961 -24.35907794 87.20365078 -26.17578125 89.328125 C-29.68058053 93.41841279 -33.49026739 97.1577157 -37.3203125 100.94140625 C-40.03711243 103.69331829 -42.56036835 106.564708 -45.0703125 109.50390625 C-47.37630422 112.11232311 -49.85001746 114.52974287 -52.35546875 116.9453125 C-53.8468261 118.36172277 -53.8468261 118.36172277 -54.73828125 120.390625 C-53.85402466 120.37428513 -52.96976807 120.35794525 -52.05871582 120.34111023 C-43.70211081 120.19830384 -35.34773597 120.11843018 -26.98987579 120.10821819 C-22.69315274 120.10077543 -18.39942578 120.06950173 -14.10351562 119.98266602 C-9.9526899 119.8996579 -5.80593883 119.88068826 -1.65440369 119.90503883 C-0.0754863 119.90325454 1.50358103 119.87886553 3.08177185 119.83093834 C8.10077845 119.68746656 12.47492729 119.77011229 17.26171875 121.390625 C21.03147814 125.35225609 23.04244908 129.38315215 25.26171875 134.390625 C26.07670716 135.75591094 26.90592889 137.11303712 27.76171875 138.453125 C29.26171875 141.390625 29.26171875 141.390625 29.26171875 145.390625 C-14.29828125 145.390625 -57.85828125 145.390625 -102.73828125 145.390625 C-100.28104614 124.5041266 -100.28104614 124.5041266 -94.8515625 119.24609375 C-93.69043945 118.10624023 -93.69043945 118.10624023 -92.50585938 116.94335938 C-91.69568359 116.16283203 -90.88550781 115.38230469 -90.05078125 114.578125 C-84.91164798 109.5813964 -79.91760192 104.57379482 -75.25073242 99.13012695 C-73.34747223 96.94114731 -71.3196497 94.90986305 -69.23828125 92.890625 C-66.45206984 90.1420651 -63.78519733 87.36202709 -61.23828125 84.390625 C-58.69136517 81.41922291 -56.02449266 78.6391849 -53.23828125 75.890625 C-50.51386585 73.2028404 -47.90567813 70.49245637 -45.42578125 67.578125 C-41.9189742 63.48276292 -38.12253688 59.71484968 -34.2644043 55.95385742 C-31.58205102 53.31803705 -29.04748292 50.61875269 -26.60546875 47.7578125 C-22.54202403 43.09140502 -18.19880798 38.73965915 -13.80078125 34.390625 C-12.63192383 33.22853516 -12.63192383 33.22853516 -11.43945312 32.04296875 C-9.54135705 30.15651743 -7.64094976 28.27246255 -5.73828125 26.390625 C-6.62919968 26.38031754 -7.5201181 26.37001007 -8.43803406 26.35939026 C-16.83945899 26.26135952 -25.24081456 26.15883714 -33.64212322 26.05128574 C-37.96117852 25.99615231 -42.28024069 25.94274785 -46.59936523 25.89331055 C-50.76856552 25.84552542 -54.93768598 25.79317791 -59.10679054 25.73768425 C-60.69634828 25.71732468 -62.28592785 25.69860126 -63.87552452 25.68155098 C-66.10418956 25.6573648 -68.33270557 25.62733046 -70.5612793 25.59594727 C-71.8292485 25.58040298 -73.09721771 25.5648587 -74.40361023 25.54884338 C-77.30535037 25.41116604 -79.91877706 25.06018987 -82.73828125 24.390625 C-75.45330628 17.10565003 -58.3355994 14.74330194 -48.72265625 11.9140625 C-47.83852051 11.65230225 -46.95438477 11.39054199 -46.04345703 11.12084961 C-44.29821285 10.60465287 -42.55184108 10.09224843 -40.80419922 9.58422852 C-36.64284723 8.35363255 -32.73370061 6.95933056 -28.75526428 5.21382141 C-19.09586453 1.27150604 -10.39374251 -0.1818926 0 0 Z " fill="#273546" transform="translate(700.73828125,409.609375)"/>
<path d="M0 0 C1.12019531 -0.01224609 2.24039062 -0.02449219 3.39453125 -0.03710938 C15.42802161 -0.05817149 27.3901288 1.5478318 36.890625 9.703125 C45.11479278 19.11632908 44.53389402 29.32957339 44.125 41.1875 C42.805 48.4475 41.485 55.7075 40.125 63.1875 C15.375 63.1875 -9.375 63.1875 -34.875 63.1875 C-34.52476656 72.65760996 -34.52476656 72.65760996 -30.875 80.1875 C-20.51437557 88.34373625 -4.49515437 86.00025032 7.92578125 84.62109375 C16.81206402 83.47323646 25.59511683 82.00415931 34.125 79.1875 C33.34784309 91.82652548 33.34784309 91.82652548 31.125 97.1875 C30.75375 98.54875 30.75375 98.54875 30.375 99.9375 C28.57768673 103.17266388 26.64035111 103.16470598 23.125 104.1875 C21.94292969 104.54070312 20.76085938 104.89390625 19.54296875 105.2578125 C8.85140456 108.05156863 -1.69522555 108.59877981 -12.6875 108.625 C-13.7320787 108.63385223 -13.7320787 108.63385223 -14.79776001 108.6428833 C-29.42283746 108.72678833 -44.59448954 107.41224596 -56.00390625 97.30078125 C-65.96715379 86.71353073 -65.37434857 73.58517889 -65.01123047 59.93554688 C-64.14812596 42.52496563 -57.28170911 24.44810837 -44.5703125 12.296875 C-31.34466261 1.94636639 -16.25823004 0.00929042 0 0 Z " fill="#273647" transform="translate(1041.875,448.8125)"/>
<path d="M0 0 C0.88845108 -0.00029205 1.77690216 -0.00058411 2.692276 -0.00088501 C5.61412494 0.0005027 8.53571541 0.01603761 11.45751953 0.03173828 C13.48918519 0.03547039 15.52085265 0.03831643 17.55252075 0.04031372 C22.88888556 0.04793454 28.22514077 0.06756974 33.5614624 0.08972168 C39.0111747 0.11021351 44.46090478 0.11932257 49.91064453 0.12939453 C60.5955884 0.15081707 71.28045109 0.18493431 81.96533203 0.22705078 C81.17079243 8.92516855 80.04966752 17.55236686 78.96533203 26.22705078 C54.54533203 26.22705078 30.12533203 26.22705078 4.96533203 26.22705078 C4.30533203 31.83705078 3.64533203 37.44705078 2.96533203 43.22705078 C1.97533203 50.15705078 0.98533203 57.08705078 -0.03466797 64.22705078 C21.74533203 64.22705078 43.52533203 64.22705078 65.96533203 64.22705078 C64.64533203 72.80705078 63.32533203 81.38705078 61.96533203 90.22705078 C39.85533203 90.22705078 17.74533203 90.22705078 -5.03466797 90.22705078 C-5.36466797 95.50705078 -5.69466797 100.78705078 -6.03466797 106.22705078 C-6.4257686 108.94590701 -6.86873107 111.65899932 -7.40966797 114.35205078 C-8.92833864 122.22814546 -10.01998888 130.13682404 -11.03222656 138.09277344 C-11.14904785 138.9917334 -11.26586914 139.89069336 -11.38623047 140.81689453 C-11.48758301 141.6198999 -11.58893555 142.42290527 -11.69335938 143.25024414 C-12.03466797 145.22705078 -12.03466797 145.22705078 -13.03466797 147.22705078 C-23.92466797 147.22705078 -34.81466797 147.22705078 -46.03466797 147.22705078 C-44.91127282 132.62291383 -44.91127282 132.62291383 -43.98388672 127.59814453 C-43.78214844 126.47617676 -43.58041016 125.35420898 -43.37255859 124.19824219 C-43.15792969 123.03212402 -42.94330078 121.86600586 -42.72216797 120.66455078 C-40.9827903 110.91375999 -39.39250379 101.16330651 -38.03466797 91.35205078 C-36.48237016 80.15259735 -34.73970524 68.99424713 -32.89013672 57.84008789 C-31.82667675 51.3683957 -30.83748601 44.90058738 -30.00341797 38.39501953 C-29.8390625 37.13689453 -29.67470703 35.87876953 -29.50537109 34.58251953 C-29.2020119 32.2185836 -28.91312617 29.8527229 -28.64208984 27.48486328 C-27.39344163 17.83252217 -24.63639857 9.73306362 -16.97607422 3.38330078 C-11.47713442 0.10827828 -6.19784078 -0.05373622 0 0 Z " fill="#283647" transform="translate(395.03466796875,407.77294921875)"/>
<path d="M0 0 C9.42506648 -0.34309936 18.60693981 0.73602448 27.9375 1.875 C31.04655877 2.24487689 34.15611691 2.6104851 37.265625 2.9765625 C38.02219894 3.06627319 38.77877289 3.15598389 39.55827332 3.24841309 C48.3600239 4.28842728 57.1765053 5.16697441 66 6 C66 6.66 66 7.32 66 8 C64.15607666 8.59687622 64.15607666 8.59687622 62.27490234 9.20581055 C57.6484022 10.70402388 53.02280763 12.20501696 48.39746094 13.70678711 C46.40779233 14.35238475 44.41788937 14.9972607 42.42773438 15.64135742 C32.18391446 18.95720154 21.97551257 22.31605199 11.85302734 25.98754883 C8.14677085 27.30278464 4.41015576 28.43772059 0.625 29.5 C-0.81021951 29.91293919 -2.24510735 30.32703259 -3.6796875 30.7421875 C-4.3922168 30.94811523 -5.10474609 31.15404297 -5.83886719 31.36621094 C-16.65747669 34.53895272 -27.44351883 37.91434713 -38 41.875 C-43.31634046 43.827036 -48.70393367 45.4098786 -54.14326477 46.97293091 C-59.18377705 48.43422046 -64.16390746 50.0238368 -69.1328125 51.7109375 C-76.13692266 54.066647 -83.16256319 56.34607432 -90.20703125 58.578125 C-91.15681351 58.87913116 -92.10659576 59.18013733 -93.0851593 59.49026489 C-96.99380506 60.72767256 -100.90314039 61.96288833 -104.81274414 63.19726562 C-107.71550983 64.1143032 -110.61755109 65.0336052 -113.51953125 65.953125 C-114.39970413 66.23021301 -115.27987701 66.50730103 -116.1867218 66.79278564 C-120.18899718 68.06180278 -124.13075037 69.35780983 -128 71 C-128.33 73.31 -128.66 75.62 -129 78 C-119.43 78 -109.86 78 -100 78 C-100.81732593 85.35593339 -101.8745942 92.6848623 -103 100 C-112.9 100 -122.8 100 -133 100 C-133.33 102.97 -133.66 105.94 -134 109 C-134.28605384 111.05028582 -134.58542188 113.09878951 -134.90234375 115.14453125 C-135.07056641 116.23443359 -135.23878906 117.32433594 -135.41210938 118.44726562 C-135.58548828 119.55779297 -135.75886719 120.66832031 -135.9375 121.8125 C-136.19176758 123.46088867 -136.19176758 123.46088867 -136.45117188 125.14257812 C-137.44005855 131.52334118 -138.48318148 137.88979685 -139.61669922 144.24658203 C-140.39224741 149.81768552 -140.7910081 155.62697571 -139 161 C-135.57426063 161.77528479 -132.42760755 162.11918778 -128.91796875 162.09765625 C-128.0777417 162.09515869 -127.23751465 162.09266113 -126.37182617 162.09008789 C-125.32099854 162.08098389 -124.2701709 162.07187988 -123.1875 162.0625 C-119.825625 162.041875 -116.46375 162.02125 -113 162 C-114.485 172.395 -114.485 172.395 -116 183 C-123.03973842 185.01135383 -128.62895822 185.33934427 -135.85107422 185.31567383 C-137.86350946 185.31251802 -139.87446493 185.33600903 -141.88671875 185.36132812 C-150.43304028 185.3655885 -159.14021293 185.21413979 -165.875 179.25 C-166.40867187 178.80140625 -166.94234375 178.3528125 -167.4921875 177.890625 C-171.52760926 172.8306661 -172.5259306 167.48548005 -172.43359375 161.15625 C-172.42726425 160.39107056 -172.42093475 159.62589111 -172.41441345 158.83752441 C-172.12678635 147.60184382 -169.97586369 136.5475814 -168.0625 125.5 C-167.68428398 123.2384921 -167.30732284 120.97677395 -166.93164062 118.71484375 C-166.57142038 116.57012613 -166.21013331 114.42558735 -165.84765625 112.28125 C-165.6778273 111.27622437 -165.50799835 110.27119873 -165.33302307 109.23571777 C-165.17293259 108.31295044 -165.0128421 107.39018311 -164.84790039 106.43945312 C-164.70800186 105.6277063 -164.56810333 104.81595947 -164.42396545 103.97961426 C-164 102 -164 102 -163 100 C-166.96 100 -170.92 100 -175 100 C-174.88525534 97.45749979 -174.7585303 94.91652662 -174.625 92.375 C-174.5940625 91.66214844 -174.563125 90.94929688 -174.53125 90.21484375 C-174.49257813 89.51230469 -174.45390625 88.80976563 -174.4140625 88.0859375 C-174.3826416 87.4470459 -174.3512207 86.8081543 -174.31884766 86.14990234 C-174 84 -174 84 -172 78 C-167.71 76.68 -163.42 75.36 -159 74 C-157.35 63.11 -155.7 52.22 -154 41 C-144.1 41 -134.2 41 -124 41 C-124.66666667 48.33333333 -125.33333333 55.66666667 -126 63 C-111.01474323 57.48715867 -96.05668633 51.90618248 -81.125 46.25 C-80.34816864 45.95576141 -79.57133728 45.66152283 -78.77096558 45.35836792 C-71.61273796 42.64658495 -64.45567271 39.93173912 -57.29882812 37.21630859 C-52.65796212 35.45562311 -48.01669086 33.69600979 -43.375 31.9375 C-42.62185516 31.65215393 -41.86871033 31.36680786 -41.09274292 31.07281494 C-24.09177495 24.63464063 -7.05020528 18.30643576 10 12 C10 11.34 10 10.68 10 10 C8.37946188 8.61096733 6.70294787 7.28667172 5 6 C3.29705213 4.71332828 1.62053812 3.38903267 0 2 C0 1.34 0 0.68 0 0 Z " fill="#283748" transform="translate(695,371)"/>
<path d="M0 0 C4.27967401 3.7820375 7.24366401 7.39413652 7.90068054 13.2870636 C7.99574739 15.53304839 8.01023306 17.76379593 7.98828125 20.01171875 C7.98322067 20.84503723 7.9781601 21.67835571 7.97294617 22.53692627 C7.81374038 31.69768005 6.48070581 40.60033618 5 49.625 C4.72711195 51.3552735 4.45548432 53.08574621 4.18505859 54.81640625 C3.50209553 59.16424112 2.80214174 63.50912657 2.09613037 67.85327148 C1.44783677 71.85400316 0.81243072 75.85677693 0.17578125 79.859375 C-0.96567037 87.03483057 -2.14037537 94.20435519 -3.3125 101.375 C-13.2125 101.375 -23.1125 101.375 -33.3125 101.375 C-33.3125 91.25853765 -33.3125 91.25853765 -32.359375 85.8828125 C-32.15401123 84.69574707 -31.94864746 83.50868164 -31.73706055 82.28564453 C-31.51445557 81.03638184 -31.29185059 79.78711914 -31.0625 78.5 C-30.60124411 75.83405302 -30.14634313 73.16703164 -29.69140625 70.5 C-29.51814568 69.48959152 -29.51814568 69.48959152 -29.34138489 68.45877075 C-28.14967728 61.48436367 -27.05427801 54.49648399 -26 47.5 C-25.82887695 46.39672363 -25.65775391 45.29344727 -25.48144531 44.15673828 C-23.83936341 34.53347935 -23.83936341 34.53347935 -25.0625 25 C-27.09721766 22.35486704 -29.4312186 21.51270022 -32.6875 21.00390625 C-43.5037994 20.73027963 -51.86655291 24.94873591 -60.3125 31.375 C-60.9725 31.375 -61.6325 31.375 -62.3125 31.375 C-62.44140625 32.58671875 -62.5703125 33.7984375 -62.703125 35.046875 C-64.58583467 51.93859882 -67.11264351 68.75333234 -70 85.5 C-70.21430664 86.74426758 -70.42861328 87.98853516 -70.64941406 89.27050781 C-72.17619037 97.9660711 -72.17619037 97.9660711 -73.3125 101.375 C-83.2125 101.375 -93.1125 101.375 -103.3125 101.375 C-102.73184988 94.98784864 -102.16258651 88.83845552 -101.19140625 82.5390625 C-101.08658432 81.8529892 -100.98176239 81.16691589 -100.87376404 80.46005249 C-100.54395855 78.30620886 -100.20959739 76.15310381 -99.875 74 C-99.65529265 72.57035954 -99.43589018 71.14067219 -99.21679688 69.7109375 C-98.78704148 66.90962115 -98.35478329 64.10870939 -97.92041016 61.30810547 C-97.5411909 58.85460257 -97.16528972 56.40058172 -96.79443359 53.94580078 C-95.58361734 45.94224452 -94.2152939 37.97191059 -92.8125 30 C-91.24540755 21.02685601 -89.74747368 12.07312862 -88.671875 3.02734375 C-88.3125 0.375 -88.3125 0.375 -87.3125 -3.625 C-77.7425 -3.625 -68.1725 -3.625 -58.3125 -3.625 C-58.6425 0.995 -58.9725 5.615 -59.3125 10.375 C-58.136875 9.364375 -56.96125 8.35375 -55.75 7.3125 C-51.58909746 4.06448227 -47.32337011 1.71304479 -42.5625 -0.5 C-41.92497803 -0.797854 -41.28745605 -1.09570801 -40.63061523 -1.40258789 C-27.87338296 -7.14576393 -12.39217213 -6.07917878 0 0 Z " fill="#273547" transform="translate(962.3125,453.625)"/>
<path d="M0 0 C1.25159912 0.00523682 2.50319824 0.01047363 3.79272461 0.01586914 C4.78942421 0.01799156 4.78942421 0.01799156 5.80625916 0.02015686 C7.93590735 0.02577021 10.06545175 0.03832485 12.19506836 0.05102539 C13.63582205 0.05603868 15.07657739 0.06060188 16.51733398 0.06469727 C20.05577938 0.07574394 23.59416375 0.09301747 27.13256836 0.11352539 C26.41385678 7.1384399 25.39842075 14.08386771 24.27709961 21.05493164 C24.00357162 22.77341309 24.00357162 22.77341309 23.72451782 24.52661133 C23.3345596 26.97653885 22.94376932 29.42633405 22.55221558 31.87600708 C19.47585051 51.13038768 16.44401558 70.39032098 13.57006836 89.67602539 C13.37859726 90.96079269 13.37859726 90.96079269 13.18325806 92.27151489 C12.49645813 96.88504923 11.81389974 101.49917523 11.13256836 106.11352539 C0.90256836 106.11352539 -9.32743164 106.11352539 -19.86743164 106.11352539 C-18.74247282 91.4890607 -18.74247282 91.4890607 -17.80761719 85.8840332 C-17.49675423 83.99445892 -17.49675423 83.99445892 -17.17961121 82.06671143 C-16.95454834 80.73334243 -16.72939219 79.39998917 -16.50415039 78.06665039 C-16.2680305 76.643049 -16.03243182 75.21936107 -15.7973175 73.79559326 C-15.18067581 70.06938489 -14.55751929 66.34429709 -13.93273926 62.6194458 C-13.18887395 58.17776477 -12.45250339 53.73483694 -11.71512032 49.29207611 C-11.1157641 45.68153952 -10.51536381 42.07118613 -9.91207886 38.46130371 C-8.79860207 31.79027671 -7.70278023 25.11754754 -6.6550293 18.43579102 C-6.37898613 16.67788239 -6.37898613 16.67788239 -6.09736633 14.88446045 C-5.75721482 12.7058788 -5.4205885 10.52674284 -5.08805847 8.34698486 C-4.94024429 7.39950378 -4.79243011 6.45202271 -4.64013672 5.47583008 C-4.5139949 4.65169617 -4.38785309 3.82756226 -4.25788879 2.97845459 C-3.61856444 -0.07513181 -3.2318875 0.12795468 0 0 Z " fill="#293849" transform="translate(486.867431640625,448.886474609375)"/>
<path d="M0 0 C6.00872179 4.3563233 9.18447129 9.85605565 11 17 C12.33323758 25.59044835 10.09692868 34.34033542 5.3046875 41.55078125 C-1.81336721 50.12414674 -10.59587857 55.07465933 -21.58984375 56.28515625 C-29.76964298 56.73257865 -35.68747922 54.4191549 -42.07421875 49.35546875 C-48.42103545 43.4610457 -50.1621298 38.35082963 -50.5625 29.8125 C-50.33909846 19.98283221 -46.84406417 12.71263706 -40.1875 5.5625 C-29.04646512 -4.70179318 -13.54237213 -8.0348229 0 0 Z " fill="#FBFCFD" transform="translate(811,461)"/>
<path d="M0 0 C9.42506648 -0.34309936 18.60693981 0.73602448 27.9375 1.875 C31.04655877 2.24487689 34.15611691 2.6104851 37.265625 2.9765625 C38.02219894 3.06627319 38.77877289 3.15598389 39.55827332 3.24841309 C48.3600239 4.28842728 57.1765053 5.16697441 66 6 C66 6.66 66 7.32 66 8 C64.15607666 8.59687622 64.15607666 8.59687622 62.27490234 9.20581055 C57.6484022 10.70402388 53.02280763 12.20501696 48.39746094 13.70678711 C46.40779233 14.35238475 44.41788937 14.9972607 42.42773438 15.64135742 C32.18391446 18.95720154 21.97551257 22.31605199 11.85302734 25.98754883 C8.14677085 27.30278464 4.41015576 28.43772059 0.625 29.5 C-0.81021951 29.91293919 -2.24510735 30.32703259 -3.6796875 30.7421875 C-4.3922168 30.94811523 -5.10474609 31.15404297 -5.83886719 31.36621094 C-16.65747669 34.53895272 -27.44351883 37.91434713 -38 41.875 C-43.31636371 43.82704453 -48.70401328 45.40967981 -54.14326477 46.97306824 C-59.1831264 48.43442035 -64.16391781 50.0216964 -69.1328125 51.70703125 C-79.01809495 55.02909312 -88.94478354 58.21656169 -98.88208008 61.37915039 C-101.85523917 62.32611259 -104.82703417 63.27727915 -107.79882812 64.22851562 C-109.70564793 64.83619248 -111.61254601 65.44362377 -113.51953125 66.05078125 C-114.39970413 66.33303055 -115.27987701 66.61527985 -116.1867218 66.90608215 C-120.10236586 68.14799036 -123.93711929 69.32762002 -128 70 C-128 67.69 -128 65.38 -128 63 C-127.38879303 62.82377106 -126.77758606 62.64754211 -126.14785767 62.4659729 C-120.15684738 60.70814271 -114.30296486 58.72235507 -108.4609375 56.5234375 C-107.58587051 56.19701767 -106.71080353 55.87059784 -105.80921936 55.5342865 C-102.99664726 54.4842793 -100.18579721 53.42974816 -97.375 52.375 C-95.41814737 51.64321323 -93.46119688 50.91168808 -91.50415039 50.18041992 C-87.68421388 48.75246494 -83.86496243 47.3227032 -80.04638672 45.89111328 C-76.04416843 44.39073284 -72.04034076 42.89478637 -68.03515625 41.40234375 C-55.99906955 36.9122974 -44.00096642 32.32553481 -32.00637817 27.72613525 C-18.0442621 22.3742757 -4.03710863 17.15212436 10 12 C10 11.34 10 10.68 10 10 C8.37946188 8.61096733 6.70294787 7.28667172 5 6 C3.29705213 4.71332828 1.62053812 3.38903267 0 2 C0 1.34 0 0.68 0 0 Z " fill="#0756B8" transform="translate(695,371)"/>
<path d="M0 0 C0.6909375 -0.01224609 1.381875 -0.02449219 2.09375 -0.03710938 C7.75699843 -0.05307718 13.09222861 0.42721282 17.625 4.125 C22.58202679 10.41661092 19.85938397 15.04674044 19.25 24.1875 C4.4 24.1875 -10.45 24.1875 -25.75 24.1875 C-24.75381552 16.21802415 -23.79641081 10.5808059 -17.5234375 5.3203125 C-11.60288355 1.28970737 -7.15826472 0.00653126 0 0 Z " fill="#FAFAFA" transform="translate(1036.75,470.8125)"/>
<path d="M0 0 C10.23 0 20.46 0 31 0 C31 7.8818366 31 7.8818366 30.37890625 11.33203125 C30.24806641 12.06744141 30.11722656 12.80285156 29.98242188 13.56054688 C29.77456055 14.67526367 29.77456055 14.67526367 29.5625 15.8125 C29.42779297 16.57498047 29.29308594 17.33746094 29.15429688 18.12304688 C28.13971481 23.72057039 28.13971481 23.72057039 27 26 C17.1 26 7.2 26 -3 26 C-3 17 -3 17 -2.34375 13.28125 C-2.22193359 12.57033203 -2.10011719 11.85941406 -1.97460938 11.12695312 C-1.81798828 10.26005859 -1.66136719 9.39316406 -1.5 8.5 C-1.005 5.695 -0.51 2.89 0 0 Z " fill="#293748" transform="translate(489,409)"/>
<path d="M0 0 C0.66 0.33 1.32 0.66 2 1 C0.26009069 2.98889633 -1.49085675 4.96573765 -3.25 6.9375 C-3.74113281 7.50146484 -4.23226562 8.06542969 -4.73828125 8.64648438 C-7.39017854 11.59893002 -9.09043262 13.29349578 -13 14 C-8.88380164 9.08064098 -4.59589638 4.47352044 0 0 Z " fill="#344252" transform="translate(650,483)"/>
<path d="M0 0 C0 1.65 0 3.3 0 5 C-3.375 5.125 -3.375 5.125 -7 5 C-7.66 4.34 -8.32 3.68 -9 3 C-7.68825887 2.4980125 -6.37558403 1.99846423 -5.0625 1.5 C-4.33160156 1.2215625 -3.60070312 0.943125 -2.84765625 0.65625 C-1 0 -1 0 0 0 Z " fill="#246BB8" transform="translate(537,445)"/>
<path d="M0 0 C0 3.60573896 -0.81707462 4.41336566 -3 7.1875 C-3.556875 7.90292969 -4.11375 8.61835937 -4.6875 9.35546875 C-5.120625 9.89816406 -5.55375 10.44085937 -6 11 C-6.71484375 9.234375 -6.71484375 9.234375 -7 7 C-5.56640625 5.078125 -5.56640625 5.078125 -3.5625 3.25 C-2.90378906 2.63640625 -2.24507812 2.0228125 -1.56640625 1.390625 C-1.04949219 0.93171875 -0.53257812 0.4728125 0 0 Z " fill="#394756" transform="translate(608,527)"/>
<path d="M0 0 C0.33 0.66 0.66 1.32 1 2 C-0.98 4.31 -2.96 6.62 -5 9 C-5.66 8.34 -6.32 7.68 -7 7 C-4.69 4.69 -2.38 2.38 0 0 Z " fill="#3B4959" transform="translate(686,445)"/>
<path d="M0 0 C0.99 0.33 1.98 0.66 3 1 C1.35 2.65 -0.3 4.3 -2 6 C-2.99 5.67 -3.98 5.34 -5 5 C-3.35 3.35 -1.7 1.7 0 0 Z " fill="#364454" transform="translate(626,508)"/>
</svg>
